{"title":"Blue.Valentine.Limited.BRRip.x264.Feel-Free","uid":6336025,"size":2871143436,"categoryP":"video","categoryS":"hd___movies","magnet":"?xt=urn:btih:e76b408f9b984169ddc58e88c9201c9236517f50&amp;dn=Blue.Valentine.Limited.BRRip.x264.Feel-Free&amp;tr=udp%3A%2F%2Ftracker.openbittorrent.com%3A80&amp;tr=udp%3A%2F%2Fopen.demonii.com%3A1337&amp;tr=udp%3A%2F%2Ftracker.coppersurfer.tk%3A6969&amp;tr=udp%3A%2F%2Fexodus.desync.com%3A6969","seeders":0,"leechers":1,"uploader":"qwersd","files":10,"time":1303469282,"description":"Genre: Drama | Romance \nLanguage:English\nIMDb:http://www.imdb.com/title/tt1120985/\nSource:RERIP.720p.Bluray-CBGB\nSubtitles:Romana\n\n\nFormat : MPEG-4\nFormat profile : Base Media\nCodec ID : isom\nFile size : 2.67 GiB\nDuration : 1h 52mn\nOverall bit rate : 3 409 Kbps\n\n\nVideo\nFormat profile : &lt;a class=&quot;__cf_email__&quot; href=&quot;/cdn-cgi/l/email-protection&quot; data-cfemail=&quot;a9e1c0cec1e9e59d8798&quot;&gt;[email&amp;#160;protected]&lt;/a&gt;&lt;script cf-hash='f9e31' type=&quot;text/javascript&quot;&gt;\n/* &lt;![CDATA[ */!function(){try{var t=&quot;currentScript&quot;in document?document.currentScript:function(){for(var t=document.getElementsByTagName(&quot;script&quot;),e=t.length;e--;)if(t[e].getAttribute(&quot;cf-hash&quot;))return t[e]}();if(t&amp;&amp;t.previousSibling){var e,r,n,i,c=t.previousSibling,a=c.getAttribute(&quot;data-cfemail&quot;);if(a){for(e=&quot;&quot;,r=parseInt(a.substr(0,2),16),n=2;a.length-n;n+=2)i=parseInt(a.substr(n,2),16)^r,e+=String.fromCharCode(i);e=document.createTextNode(e),c.parentNode.replaceChild(e,c)}}}catch(u){}}();/* ]]&gt; */&lt;/script&gt;\nFormat settings, CABAC : Yes\nFormat settings, ReFrames : 3 frames\nFormat settings, GOP : M=1, N=24\nCodec ID : avc1\nCodec ID/Info : Advanced Video Coding\nDuration : 1h 52mn\nBit rate mode : Variable\nBit rate : 3 000 Kbps\nMaximum bit rate : 13.8 Mbps\nWidth : 1 200 pixels\nHeight : 720 pixels\nDisplay aspect ratio : 1.667\nFrame rate mode : Constant\nFrame rate : 23.976 fps\nColor space : YUV\nChroma subsampling : 4:2:0\nBit depth : 8 bits\nScan type : Progressive\nBits/(Pixel*Frame) : 0.145\nStream size : 2.33 GiB (87%)\nWriting library : x264\n\n\nAudio\nID : 2\nFormat : AAC\nFormat/Info : Advanced Audio Codec\nFormat version : Version 4\nFormat profile : LC\nFormat settings, SBR : No\nCodec ID : 40\nDuration : 1h 52mn\nBit rate mode : Variable\nBit rate : 429 Kbps\nMaximum bit rate : 598 Kbps\nChannel(s) : 6 channels\nChannel positions : Front: L C R, Side: L R, LFE\nSampling rate : 48.0 KHz\nStream size : 344 MiB (13%)\n\n\nPlot:\nThe film centers on a contemporary married couple, charting their evolution over a span of years by cross-cutting between time periods.\n\nScreens:\n &lt;a href=&quot;\nhttp://leetleech.org/images/93756045250484930074.png&quot; rel=&quot;nofollow&quot; target=&quot;_NEW&quot;&gt;\nhttp://leetleech.org/images/93756045250484930074.png&lt;/a&gt; &lt;a href=&quot;\nhttp://leetleech.org/images/42919117173971744525.png&quot; rel=&quot;nofollow&quot; target=&quot;_NEW&quot;&gt;\nhttp://leetleech.org/images/42919117173971744525.png&lt;/a&gt; &lt;a href=&quot;\nhttp://leetleech.org/images/09533140573590153704.png&quot; rel=&quot;nofollow&quot; target=&quot;_NEW&quot;&gt;\nhttp://leetleech.org/images/09533140573590153704.png&lt;/a&gt; &lt;a href=&quot;\nhttp://leetleech.org/images/08176279617118546583.png&quot; rel=&quot;nofollow&quot; target=&quot;_NEW&quot;&gt;\nhttp://leetleech.org/images/08176279617118546583.png&lt;/a&gt; &lt;a href=&quot;\nhttp://leetleech.org/images/54238616580246667849.png&quot; rel=&quot;nofollow&quot; target=&quot;_NEW&quot;&gt;\nhttp://leetleech.org/images/54238616580246667849.png&lt;/a&gt;\n\nGreets:\n\nINK,CRYS,IMAGINE,LKRG,FXG,3Li,FLAWL3SS,TA,iLLUSiON,ViSiON,DTRG SAFCuk009,LU,TheFalcon007,MYSTiC,PrisM,Noir,WBZ,LAP,Rx,Kingdom,SAFCuk009+Fabreezy,HDLiTE,TWiZTED,ExtraTorrentRG.ELEKTRI4KA,MAGNAT,CM8\nAnd to all the other p2p grps past and present.","torrent":{"xt":"urn:btih:e76b408f9b984169ddc58e88c9201c9236517f50","amp;dn":"Blue.Valentine.Limited.BRRip.x264.Feel-Free","amp;tr":["udp%3A%2F%2Ftracker.openbittorrent.com%3A80","udp%3A%2F%2Fopen.demonii.com%3A1337","udp%3A%2F%2Ftracker.coppersurfer.tk%3A6969","udp%3A%2F%2Fexodus.desync.com%3A6969"],"infoHash":"e76b408f9b984169ddc58e88c9201c9236517f50","infoHashBuffer":{"type":"Buffer","data":[231,107,64,143,155,152,65,105,221,197,142,136,201,32,28,146,54,81,127,80]},"announce":[],"urlList":[]}}